<svg width="24" height="28" viewBox="0 0 24 28" fill="none" xmlns="http://www.w3.org/2000/svg">
<path fill-rule="evenodd" clip-rule="evenodd" d="M18 25H6C4.34315 25 3 23.6569 3 22L3 6C3 4.34315 4.34315 3 6 3L11.5147 3C12.3104 3 13.0734 3.31607 13.636 3.87868L20.1213 10.364C20.6839 10.9266 21 11.6896 21 12.4853V22C21 23.6569 19.6569 25 18 25ZM22.2426 8.24264C23.3679 9.36786 24 10.894 24 12.4853L24 22C24 25.3137 21.3137 28 18 28H6C2.68629 28 0 25.3137 0 22V6C0 2.68629 2.68629 0 6 0H11.5147C13.106 0 14.6321 0.632141 15.7574 1.75736L22.2426 8.24264ZM17.7 13.2999C18.1971 12.6372 18.0627 11.697 17.4 11.1999C16.7373 10.7028 15.7971 10.8372 15.3 11.4999L10.9377 17.3163L8.56066 14.9392C7.97487 14.3535 7.02513 14.3535 6.43934 14.9392C5.85355 15.525 5.85355 16.4748 6.43934 17.0606L10.0393 20.6606C10.3468 20.968 10.7726 21.127 11.2063 21.0961C11.6401 21.0653 12.0391 20.8478 12.3 20.4999L17.7 13.2999Z" fill="#037E91"/>
</svg>
