<svg width="32" height="28" viewBox="0 0 32 28" fill="none" xmlns="http://www.w3.org/2000/svg">
<path fill-rule="evenodd" clip-rule="evenodd" d="M23 7C24.1046 7 25 6.10457 25 5C25 3.89543 24.1046 3 23 3C21.8954 3 21 3.89543 21 5C21 6.10457 21.8954 7 23 7ZM23 10C25.7614 10 28 7.76142 28 5C28 2.23858 25.7614 0 23 0C20.2386 0 18 2.23858 18 5C18 7.76142 20.2386 10 23 10ZM21.5 12.5C21.5 11.6716 22.1716 11 23 11C25.4751 11 27.725 11.7693 29.3562 12.9231C30.9928 14.0807 32 15.62 32 17.1538C32 19.278 30.278 21 28.1538 21H27.5C26.6716 21 26 20.3284 26 19.5C26 18.6716 26.6716 18 27.5 18H28.1538C28.6212 18 29 17.6212 29 17.1538C29 16.944 28.8024 16.2059 27.6238 15.3723C26.5149 14.5879 24.874 14 23 14C22.1716 14 21.5 13.3284 21.5 12.5ZM4.37618 15.3723C5.48511 14.5879 7.12602 14 9 14C9.82842 14 10.5 13.3284 10.5 12.5C10.5 11.6716 9.82842 11 9 11C6.52494 11 4.27495 11.7693 2.64375 12.9231C1.00718 14.0807 0 15.62 0 17.1538C0 19.278 1.72198 21 3.84615 21H4.5C5.32843 21 6 20.3284 6 19.5C6 18.6716 5.32843 18 4.5 18H3.84615C3.37884 18 3 17.6212 3 17.1538C3 16.944 3.19762 16.2059 4.37618 15.3723ZM9 7C10.1046 7 11 6.10457 11 5C11 3.89543 10.1046 3 9 3C7.89543 3 7 3.89543 7 5C7 6.10457 7.89543 7 9 7ZM9 10C11.7614 10 14 7.76142 14 5C14 2.23858 11.7614 0 9 0C6.23857 0 4 2.23858 4 5C4 7.76142 6.23857 10 9 10ZM21.5 17H20.9999V16C20.9999 13.2386 18.7613 11 15.9999 11C13.2385 11 10.9999 13.2386 10.9999 16V17H10.5C9.11929 17 8 18.1193 8 19.5V25.5C8 26.8807 9.11929 28 10.5 28H21.5C22.8807 28 24 26.8807 24 25.5V19.5C24 18.1193 22.8807 17 21.5 17ZM17.9999 16V17H13.9999V16C13.9999 14.8954 14.8953 14 15.9999 14C17.1044 14 17.9999 14.8954 17.9999 16ZM11 20V25H21V20H11Z" fill="#037E91"/>
</svg>
