<svg width="32" height="30" viewBox="0 0 32 30" fill="none" xmlns="http://www.w3.org/2000/svg">
<path fill-rule="evenodd" clip-rule="evenodd" d="M14 11C16.2091 11 18 9.20914 18 7C18 4.79086 16.2091 3 14 3C11.7909 3 10 4.79086 10 7C10 9.20914 11.7909 11 14 11ZM14 14C17.866 14 21 10.866 21 7C21 3.13401 17.866 0 14 0C10.134 0 7 3.13401 7 7C7 10.866 10.134 14 14 14ZM13 16.5972C13 15.7393 12.2819 15.0497 11.4297 15.1498C4.94614 15.9115 0 19.4557 0 22.9999C0 25.7614 2.23858 27.9999 5 27.9999H11.5C12.3284 27.9999 13 27.3284 13 26.4999C13 25.6715 12.3284 24.9999 11.5 24.9999H5C3.89543 24.9999 3 24.1045 3 22.9999C3 22.5909 3.44054 21.3821 5.63912 20.0825C7.1693 19.1779 9.22403 18.4567 11.5771 18.1542C12.3715 18.0521 13 17.3981 13 16.5972ZM29.005 20.378C27.0491 19.8763 25.689 18.085 25.685 16.1012L24.3239 15.5908C23.0734 17.3114 20.796 17.9586 18.8307 17.2228L18.0183 18.3601C19.1566 19.9353 19.1566 22.0991 18.0183 23.6743L18.8307 24.8116C20.796 24.0758 23.0734 24.723 24.3239 26.4436L25.685 25.9332C25.689 23.9494 27.0491 22.1581 29.005 21.6564V20.378ZM28.78 15.5851C29.0573 14.8456 28.6826 14.0213 27.9432 13.744L24.3478 12.3958C23.4531 12.0602 22.4558 12.5135 22.1203 13.4082C21.721 14.4732 20.4052 14.8589 19.4797 14.1978C18.6907 13.6343 17.5826 13.8087 17.0191 14.5976L14.8674 17.61C14.3722 18.3032 14.5328 19.2667 15.2261 19.7619C16.0874 20.3771 16.0874 21.6572 15.2261 22.2725C14.5328 22.7677 14.3722 23.7311 14.8674 24.4244L17.0191 27.4368C17.5826 28.2257 18.6907 28.4001 19.4796 27.8365C20.4052 27.1755 21.721 27.5612 22.1203 28.6262C22.4558 29.5208 23.4531 29.9741 24.3478 29.6386L27.9432 28.2904C28.6827 28.0131 29.0573 27.1888 28.78 26.4493C28.4294 25.5144 29.1205 24.5172 30.119 24.5172H30.3883C31.2812 24.5172 32.005 23.7934 32.005 22.9005V19.1339C32.005 18.241 31.2812 17.5172 30.3883 17.5172H30.119C29.1205 17.5172 28.4294 16.52 28.78 15.5851ZM25.1141 20.9033C25.1141 22.0649 24.1724 23.0066 23.0108 23.0066C21.8492 23.0066 20.9075 22.0649 20.9075 20.9033C20.9075 19.7417 21.8492 18.8 23.0108 18.8C24.1724 18.8 25.1141 19.7417 25.1141 20.9033Z" fill="#037E91"/>
</svg>
