<svg width="29" height="29" viewBox="0 0 29 29" fill="none" xmlns="http://www.w3.org/2000/svg">
<path fill-rule="evenodd" clip-rule="evenodd" d="M12.3349 9.25659L10.7605 8.94171L8.52545 8.4947C7.78167 8.34594 7.01276 8.57875 6.47642 9.11509L4.02357 11.5679C3.75654 11.835 3.56185 12.1608 3.45209 12.515L5.49273 12.886C10.5681 13.8088 14.5401 17.7808 15.4628 22.8561L15.8339 24.8968C16.1881 24.787 16.5139 24.5923 16.7809 24.3253L19.2338 21.8725C19.7701 21.3361 20.0029 20.5672 19.8542 19.8234L19.4072 17.5883L19.0923 16.014L20.2276 14.8787L22.7129 12.3934C24.4007 10.7056 25.3489 8.41636 25.3489 6.02942L25.3489 2.99998L22.3195 2.99998C19.9325 2.99998 17.6433 3.94819 15.9555 5.63601L13.4702 8.12129L12.3349 9.25659ZM22.3489 17L24.8342 14.5147C27.0846 12.2643 28.3489 9.21202 28.3489 6.02942L28.3489 2.99998C28.3489 1.34313 27.0057 -2.12465e-05 25.3489 -2.12465e-05L22.3195 -2.33539e-05C19.1369 -2.33539e-05 16.0846 1.26426 13.8342 3.5147L11.3489 5.99998L9.1138 5.55296C7.38644 5.20748 5.60072 5.74816 4.3551 6.99377L1.90225 9.44663C0.907658 10.4412 0.348901 11.7902 0.348901 13.1967C0.348901 14.241 1.09568 15.1357 2.12305 15.3225L4.95607 15.8376C8.80208 16.5369 11.812 19.5468 12.5112 23.3928L13.0263 26.2258C13.2131 27.2532 14.1079 28 15.1521 28C16.5587 28 17.9077 27.4412 18.9023 26.4466L21.3551 23.9938C22.6007 22.7482 23.1414 20.9624 22.7959 19.2351L22.3489 17ZM6.22758 22.1423C5.60688 21.5216 4.70771 21.5811 4.21805 22.0708C3.75307 22.5357 3.37288 23.3852 3.16556 24.5647C3.12194 24.8128 3.08902 25.0581 3.06451 25.2951C3.30895 25.2695 3.56219 25.2353 3.81821 25.1899C5.01102 24.9785 5.85275 24.5982 6.29912 24.1518C6.78878 23.6622 6.84828 22.763 6.22758 22.1423ZM8.3489 20.021C6.60266 18.2747 3.80346 18.2427 2.09672 19.9494C-0.0965638 22.1427 -0.0479145 26.1873 0.0235544 27.4231C0.0373968 27.6625 0.143983 27.8838 0.313519 28.0533C0.484903 28.2247 0.709063 28.3317 0.951114 28.3442C2.19649 28.4085 6.25763 28.436 8.42044 26.2732C10.1272 24.5664 10.0951 21.7672 8.3489 20.021ZM21.9096 8.56064C22.4953 7.97485 22.4953 7.0251 21.9096 6.43932C21.3238 5.85353 20.374 5.85353 19.7882 6.43932L16.7882 9.43932C16.2024 10.0251 16.2024 10.9749 16.7882 11.5606C17.374 12.1464 18.3238 12.1464 18.9096 11.5606L21.9096 8.56064Z" fill="#037E91"/>
</svg>
