<svg width="28" height="29" viewBox="0 0 28 29" fill="none" xmlns="http://www.w3.org/2000/svg">
<path fill-rule="evenodd" clip-rule="evenodd" d="M4.00579 7.40492L12.4459 3.35367C12.9309 3.12087 13.462 3 14 3C14.538 3 15.0691 3.12086 15.5541 3.35367L23.9942 7.40492C24.6089 7.7 25 8.32147 25 9.00336V10C25 15.8308 22.0289 21.2597 17.1179 24.4028L15.1462 25.6646C14.8041 25.8836 14.4063 26 14 26C13.5937 26 13.1959 25.8836 12.8538 25.6646L10.8821 24.4028C5.97105 21.2597 3 15.8308 3 10V9.00336C3 8.32147 3.39105 7.7 4.00579 7.40492ZM11.1477 0.649097L2.7076 4.70035C1.05271 5.4947 0 7.1677 0 9.00336V10C0 16.8537 3.49229 23.2351 9.26499 26.9296L11.2366 28.1914C12.0616 28.7194 13.0205 29 14 29C14.9795 29 15.9384 28.7194 16.7634 28.1914L18.735 26.9296C24.5077 23.2351 28 16.8537 28 10V9.00336C28 7.1677 26.9473 5.4947 25.2924 4.70035L16.8523 0.649097C15.9621 0.221828 14.9874 0 14 0C13.0126 0 12.0379 0.221828 11.1477 0.649097ZM20.2 10.9C20.6971 10.2373 20.5627 9.29706 19.9 8.8C19.2373 8.30294 18.2971 8.43726 17.8 9.1L12.8377 15.7164L10.0607 12.9393C9.47487 12.3536 8.52513 12.3536 7.93934 12.9393C7.35355 13.5251 7.35355 14.4749 7.93934 15.0607L11.9393 19.0607C12.2468 19.3681 12.6726 19.5271 13.1063 19.4962C13.5401 19.4654 13.9391 19.2479 14.2 18.9L20.2 10.9Z" fill="#037E91"/>
</svg>
