<svg width="32" height="32" viewBox="0 0 32 32" fill="none" xmlns="http://www.w3.org/2000/svg">
<path fill-rule="evenodd" clip-rule="evenodd" d="M15 10C15 11.6569 13.6569 13 12 13C10.3431 13 9 11.6569 9 10C9 8.34314 10.3431 7 12 7C13.6569 7 15 8.34314 15 10ZM17.811 11.5C17.1449 14.0878 14.7958 16 12 16C9.20424 16 6.85509 14.0878 6.18903 11.5H3.49463C2.6662 11.5 1.99463 10.8284 1.99463 10C1.99463 9.17157 2.6662 8.5 3.49463 8.5H6.18903C6.85509 5.91216 9.20424 4 12 4C14.7958 4 17.1449 5.91216 17.811 8.5H28.5003C29.3287 8.5 30.0003 9.17157 30.0003 10C30.0003 10.8284 29.3287 11.5 28.5003 11.5H17.811ZM3.49463 20.5L14.1841 20.5C14.8502 17.9122 17.1994 16 19.9951 16C22.7909 16 25.14 17.9122 25.8061 20.5H28.5005C29.3289 20.5 30.0005 21.1716 30.0005 22C30.0005 22.8284 29.3289 23.5 28.5005 23.5H25.8061C25.14 26.0878 22.7909 28 19.9951 28C17.1994 28 14.8502 26.0878 14.1841 23.5L3.49463 23.5C2.6662 23.5 1.99463 22.8284 1.99463 22C1.99463 21.1716 2.6662 20.5 3.49463 20.5ZM19.9951 19C18.3383 19 16.9951 20.3431 16.9951 22C16.9951 23.6568 18.3383 25 19.9951 25C21.652 25 22.9951 23.6568 22.9951 22C22.9951 20.3431 21.652 19 19.9951 19Z" fill="#037E91"/>
</svg>
