<svg width="32" height="32" viewBox="0 0 32 32" fill="none" xmlns="http://www.w3.org/2000/svg">
<path fill-rule="evenodd" clip-rule="evenodd" d="M14.364 5.87868L4.62515 15.6175C3.84907 16.3936 3.84341 17.6501 4.61247 18.4331L13.3526 27.3321C14.1263 28.12 15.3921 28.1316 16.1803 27.3582L26.1012 17.6227C26.6761 17.0586 27 16.287 27 15.4815L27 7C27 5.89543 26.1046 5 25 5L16.4853 5C15.6896 5 14.9266 5.31607 14.364 5.87868ZM28.2024 19.764C29.3522 18.6357 30 17.0924 30 15.4815L30 7C30 4.23858 27.7614 2 25 2L16.4853 2C14.894 2 13.3679 2.63214 12.2426 3.75736L2.50383 13.4962C0.563639 15.4364 0.549489 18.5776 2.47212 20.5352L11.2122 29.4343C13.1466 31.4038 16.3111 31.433 18.2815 29.4995L28.2024 19.764ZM20.3891 8.07542C19.8033 7.48964 18.8536 7.48964 18.2678 8.07542L14.7322 11.611L14.5555 11.4342C13.9697 10.8484 13.0199 10.8484 12.4341 11.4342C11.8484 12.02 11.8484 12.9697 12.4341 13.5555L12.6109 13.7323L11.9038 14.4394L11.727 14.2626C11.1412 13.6768 10.1915 13.6768 9.60571 14.2626C9.01993 14.8484 9.01993 15.7981 9.60571 16.3839L9.78249 16.5607L9.07538 17.2678C8.4896 17.8536 8.4896 18.8033 9.07538 19.3891C9.66117 19.9749 10.6109 19.9749 11.1967 19.3891L11.9038 18.682L14.0251 20.8033C14.6109 21.3891 15.5607 21.3891 16.1464 20.8033C16.7322 20.2176 16.7322 19.2678 16.1464 18.682L14.0251 16.5607L14.7322 15.8536L16.3232 17.4446C18.1782 19.2996 21.1857 19.2996 23.0407 17.4446C24.8957 15.5896 24.8957 12.5821 23.0407 10.7271L20.3891 8.07542ZM18.4445 15.3233L16.8536 13.7323L19.3284 11.2574L20.9194 12.8484C21.6028 13.5318 21.6028 14.6398 20.9194 15.3233C20.236 16.0067 19.128 16.0067 18.4445 15.3233Z" fill="#037E91"/>
</svg>
