<svg width="32" height="32" viewBox="0 0 32 32" fill="none" xmlns="http://www.w3.org/2000/svg">
<g clip-path="url(#clip0_4595_4)">
<path fill-rule="evenodd" clip-rule="evenodd" d="M14.5 2.5L14.5 29.5C14.5 30.3284 15.1716 31 16 31C16.8284 31 17.5 30.3284 17.5 29.5L17.5 2.5C17.5 1.67157 16.8284 1 16 1C15.1716 1 14.5 1.67157 14.5 2.5ZM5 4H12V7H5C3.89543 7 3 7.89543 3 9V12.5C3 13.6046 3.89543 14.5 5 14.5L11 14.5H12V17.5H11C9.89543 17.5 9 18.3954 9 19.5V23C9 24.1046 9.89543 25 11 25H12V28H11C8.23857 28 6 25.7614 6 23V19.5C6 18.7889 6.14845 18.1125 6.41604 17.5H5C2.23858 17.5 0 15.2614 0 12.5V9C0 6.23857 2.23858 4 5 4ZM21 14.5H20V17.5H21H27C28.1046 17.5 29 18.3954 29 19.5V23C29 24.1046 28.1046 25 27 25H20V28H27C29.7614 28 32 25.7614 32 23V19.5C32 16.7386 29.7614 14.5 27 14.5H25.5839C25.8515 13.8875 26 13.2111 26 12.5V9C26 6.23857 23.7614 4 21 4H20V7H21C22.1046 7 23 7.89543 23 9V12.5C23 13.6046 22.1046 14.5 21 14.5Z" fill="#037E91"/>
</g>
<defs>
<clipPath id="clip0_4595_4">
<rect width="32" height="32" fill="white"/>
</clipPath>
</defs>
</svg>
